<svg width="124" height="32" viewBox="0 0 124 32" fill="none" xmlns="http://www.w3.org/2000/svg">
<g clip-path="url(#clip0_18_51)">
<path d="M27.1709 0C29.3146 1.67811e-05 31.0527 1.73812 31.0527 3.88184V16.8955C30.3167 17.8986 29.3195 18.8373 28.3369 19.7002C27.4953 20.4262 26.6134 21.1093 25.6953 21.6758C25.2381 21.9559 24.7639 22.209 24.3154 22.3701C24.0462 22.4811 23.7649 22.5113 23.5996 22.5088C23.598 22.4479 23.5981 22.37 23.6045 22.29C23.6243 22.0318 23.6782 21.7404 23.749 21.4316C23.889 20.8306 24.0826 20.2132 24.2949 19.5928C24.7217 18.3551 25.2207 17.1206 25.7412 15.8945C26.2629 14.6691 26.8117 13.4493 27.376 12.2363L28.2363 10.4219C28.4879 9.9457 28.7322 9.46581 28.9678 8.98242C28.9921 8.92647 29.0114 8.88152 29.0273 8.84277C29.0391 8.80586 29.0249 8.87592 29.1113 8.6123C29.1197 8.58082 29.1315 8.5431 29.1455 8.4541C29.152 8.40786 29.16 8.34894 29.1592 8.24219C29.1513 8.13381 29.1673 7.97536 29.0098 7.6543C28.9284 7.49794 28.7734 7.2931 28.5303 7.14746C28.29 6.99893 27.9927 6.94622 27.7793 6.96289C27.3472 7.00304 27.1843 7.15566 27.0977 7.20898C26.9258 7.33965 26.8905 7.39667 26.8506 7.44141C26.7332 7.5948 26.7451 7.59667 26.7246 7.62793C26.7 7.67231 26.6916 7.69102 26.6787 7.7168C26.6481 7.78074 26.6118 7.86212 26.583 7.92578C26.3183 8.41748 26.0407 8.90746 25.752 9.39453C25.0424 8.61423 24.184 8.02636 23.2939 7.5127C19.1641 5.12657 13.5882 5.74293 9.68164 8.36328C8.36616 9.20066 7.1145 10.2523 6.11035 11.5742C4.00851 14.1712 3.21941 18.5094 5.44336 21.6416C7.53028 24.8932 12.2539 25.5562 15.2578 23.9521C18.0861 22.5557 20.4883 20.6927 22.5469 18.5273C22.5 18.6869 22.4513 18.847 22.4062 19.0078C22.2195 19.682 22.0492 20.3563 21.9277 21.0752C21.8664 21.4492 21.8182 21.8095 21.8125 22.2305C21.8115 22.3386 21.8154 22.4447 21.8232 22.5498C21.8322 22.6767 21.8479 22.8025 21.875 22.9287C21.9388 23.1891 22.0326 23.588 22.4912 23.9092C23.5555 24.5002 24.3224 24.0892 24.9189 23.8701C25.5182 23.6056 26.0353 23.2752 26.5264 22.9277C27.5032 22.2278 28.3722 21.4458 29.1982 20.623C29.8467 19.9598 30.4771 19.3009 31.0527 18.5684V27.1709C31.0527 29.3146 29.3146 31.0527 27.1709 31.0527H3.88184C1.73812 31.0527 1.75315e-05 29.3146 0 27.1709V3.88184C0 1.73811 1.73811 0 3.88184 0H27.1709ZM11.5283 11.1572C14.6747 8.92274 18.6902 8.03917 22.4053 9.41309C23.2851 9.73753 24.1919 10.1997 24.8906 10.7812C22.092 15.0875 18.3571 18.9741 13.9102 20.9961C11.759 21.999 9.38387 21.4849 8.2373 19.7314C7.05126 18.0072 7.36656 15.5247 8.84277 13.6475C9.5497 12.7146 10.4842 11.8794 11.5283 11.1572Z" fill="white"/>
</g>
<path d="M40.7915 23.2526H38.0059L43.5352 7.94239H46.2788L51.8081 23.2526H48.9806L47.7449 19.713H42.0272L40.7915 23.2526ZM44.5614 12.5082L42.8231 17.451H46.97L45.2107 12.5082C45.085 12.1103 44.9384 11.6495 44.8965 11.3353C44.8337 11.6286 44.708 12.0893 44.5614 12.5082ZM55.4872 23.2526H52.932V12.9062H55.2987L55.5082 14.2466C56.1574 13.1994 57.4141 12.592 58.8174 12.592C61.4144 12.592 62.7549 14.2047 62.7549 16.8855V23.2526H60.1997V17.4929C60.1997 15.7546 59.341 14.9168 58.0215 14.9168C56.4507 14.9168 55.4872 16.0059 55.4872 17.6814V23.2526ZM67.4017 23.2526H64.8465V12.9062H67.2132L67.4226 14.2466C68.0719 13.1994 69.3285 12.592 70.7318 12.592C73.3289 12.592 74.6693 14.2047 74.6693 16.8855V23.2526H72.1141V17.4929C72.1141 15.7546 71.2554 14.9168 69.9359 14.9168C68.3651 14.9168 67.4017 16.0059 67.4017 17.6814V23.2526ZM76.1535 18.0584C76.1535 14.833 78.4783 12.6129 81.6828 12.6129C84.8873 12.6129 87.2121 14.833 87.2121 18.0584C87.2121 21.2838 84.8873 23.5039 81.6828 23.5039C78.4783 23.5039 76.1535 21.2838 76.1535 18.0584ZM78.7087 18.0584C78.7087 19.9434 79.9235 21.221 81.6828 21.221C83.4421 21.221 84.6569 19.9434 84.6569 18.0584C84.6569 16.1734 83.4421 14.8958 81.6828 14.8958C79.9235 14.8958 78.7087 16.1734 78.7087 18.0584ZM92.2349 23.2526H89.6797V15.0425H87.69V12.9062H89.6797V9.68075H92.2349V12.9062H94.2455V15.0425H92.2349V23.2526ZM98.4326 23.5248C96.2334 23.5248 94.893 22.2472 94.893 20.2994C94.893 18.3935 96.2753 17.1997 98.7258 17.0112L101.826 16.7808V16.5504C101.826 15.1472 100.988 14.5817 99.6892 14.5817C98.1812 14.5817 97.3435 15.21 97.3435 16.2991H95.1653C95.1653 14.0581 97.0084 12.592 99.8149 12.592C102.6 12.592 104.318 14.1 104.318 16.9693V23.2526H102.077L101.888 21.7236C101.449 22.7918 100.045 23.5248 98.4326 23.5248ZM99.2703 21.598C100.841 21.598 101.846 20.6555 101.846 19.0637V18.5192L99.6892 18.6867C98.0975 18.8333 97.4901 19.357 97.4901 20.1947C97.4901 21.1372 98.1184 21.598 99.2703 21.598ZM109.785 23.2526H107.229V15.0425H105.24V12.9062H107.229V9.68075H109.785V12.9062H111.795V15.0425H109.785V23.2526ZM117.491 23.5248C114.412 23.5248 112.255 21.2838 112.255 18.0794C112.255 14.833 114.371 12.592 117.407 12.592C120.507 12.592 122.476 14.6655 122.476 17.8909V18.6658L114.685 18.6867C114.873 20.5089 115.837 21.4304 117.533 21.4304C118.936 21.4304 119.858 20.8859 120.151 19.9015H122.518C122.078 22.1635 120.193 23.5248 117.491 23.5248ZM117.428 14.6864C115.92 14.6864 114.999 15.5032 114.748 17.0531H119.942C119.942 15.6289 118.957 14.6864 117.428 14.6864Z" fill="white"/>
<defs>
<clipPath id="clip0_18_51">
<rect width="31.0524" height="31.0524" fill="white"/>
</clipPath>
</defs>
</svg>
