<svg width="124" height="32" viewBox="0 0 124 32" fill="none" xmlns="http://www.w3.org/2000/svg">
<g clip-path="url(#clip0_20_52)">
<path d="M3.88184 0.324219H27.1709C29.1354 0.324236 30.7275 1.91729 30.7275 3.88184V27.1709C30.7275 29.1354 29.1354 30.7275 27.1709 30.7275H3.88184C1.91729 30.7275 0.324236 29.1354 0.324219 27.1709V3.88184C0.324219 1.91728 1.91728 0.324219 3.88184 0.324219Z" fill="white" stroke="black" stroke-width="0.648801"/>
<path d="M9.68194 8.36357C13.5885 5.74322 19.1642 5.12631 23.2941 7.51243C24.1841 8.0261 25.0421 8.61445 25.7517 9.39475C26.0406 8.90759 26.3178 8.41734 26.5826 7.92555C26.6114 7.86178 26.648 7.78037 26.6787 7.71638C26.6916 7.69058 26.7004 7.67248 26.7251 7.62801C26.7456 7.59675 26.7333 7.5952 26.8507 7.4418C26.8907 7.39704 26.9251 7.34029 27.0972 7.20945C27.1837 7.15644 27.3461 7.00335 27.7791 6.96311C27.9925 6.94637 28.29 6.99878 28.5304 7.14742C28.7736 7.29306 28.9282 7.498 29.0095 7.65436C29.1672 7.97559 29.1514 8.13394 29.1593 8.24233C29.1601 8.34918 29.1519 8.40796 29.1454 8.45422C29.1314 8.54329 29.1196 8.58088 29.1113 8.61238C29.0249 8.876 29.0388 8.80556 29.027 8.84247C29.0111 8.88126 28.9919 8.92631 28.9675 8.98234C28.7319 9.46585 28.4875 9.94583 28.2359 10.4221L27.3764 12.236C26.812 13.4491 26.2627 14.669 25.741 15.8946C25.2204 17.1208 24.7221 18.355 24.2953 19.5927C24.0829 20.2133 23.889 20.8307 23.749 21.4319C23.6782 21.7407 23.6241 22.0316 23.6042 22.2898C23.5978 22.37 23.598 22.4482 23.5996 22.5091C23.7648 22.5116 24.046 22.4816 24.3152 22.3706C24.7638 22.2095 25.2379 21.9559 25.6953 21.6757C26.6134 21.1091 27.4954 20.4262 28.337 19.7002C29.3781 18.7859 30.439 17.7893 31.1845 16.718C31.2506 16.6151 31.353 16.5393 31.4723 16.509C31.5917 16.4788 31.7182 16.4961 31.8238 16.5579C31.9295 16.6199 32.0065 16.7223 32.0385 16.8415C32.0703 16.9606 32.0544 17.0875 31.9966 17.1956C31.2068 18.5344 30.2246 19.573 29.1978 20.6231C28.3717 21.4459 27.5034 22.2277 26.5265 22.9276C26.0354 23.2751 25.5187 23.606 24.9194 23.8705C24.3228 24.0896 23.5559 24.5002 22.4915 23.9091C22.0327 23.5879 21.9391 23.1893 21.8753 22.9289C21.8481 22.8026 21.832 22.6772 21.823 22.5502C21.8152 22.4448 21.8119 22.3384 21.8129 22.23C21.8185 21.809 21.8667 21.4493 21.9281 21.0753C22.0495 20.3564 22.2195 19.682 22.4063 19.0078C22.4513 18.847 22.4996 18.6871 22.5465 18.5275C20.488 20.6929 18.0863 22.5553 15.258 23.9517C12.2541 25.556 7.53059 24.8938 5.4436 21.6421C3.21926 18.5098 4.00866 14.1717 6.1106 11.5746C7.11479 10.2526 8.36639 9.20098 9.68194 8.36357ZM23.4581 22.4761C23.446 22.485 23.4563 22.492 23.4837 22.4983C23.4752 22.4917 23.4677 22.4831 23.4581 22.4761ZM22.4057 9.41279C18.6905 8.03871 14.6746 8.92285 11.5282 11.1575C10.484 11.8796 9.54968 12.7147 8.84275 13.6475C7.36654 15.5248 7.05119 18.0071 8.23723 19.7314C9.38378 21.4849 11.7589 21.9989 13.9102 20.9959C18.3571 18.974 22.0917 15.0876 24.8903 10.7814C24.1916 10.1998 23.2855 9.73723 22.4057 9.41279Z" fill="black"/>
<rect x="0.324401" y="0.324401" width="30.4036" height="30.4036" rx="3.55715" stroke="black" stroke-width="0.648801"/>
</g>
<path d="M40.7916 23.2526H38.006L43.5353 7.94239H46.279L51.8082 23.2526H48.9808L47.7451 19.713H42.0273L40.7916 23.2526ZM44.5615 12.5082L42.8232 17.451H46.9701L45.2108 12.5082C45.0851 12.1103 44.9385 11.6495 44.8966 11.3353C44.8338 11.6286 44.7081 12.0893 44.5615 12.5082ZM55.4874 23.2526H52.9322V12.9062H55.2989L55.5083 14.2466C56.1576 13.1994 57.4142 12.592 58.8175 12.592C61.4145 12.592 62.755 14.2047 62.755 16.8855V23.2526H60.1998V17.4929C60.1998 15.7546 59.3411 14.9168 58.0216 14.9168C56.4508 14.9168 55.4874 16.0059 55.4874 17.6814V23.2526ZM67.4018 23.2526H64.8466V12.9062H67.2133L67.4227 14.2466C68.072 13.1994 69.3287 12.592 70.7319 12.592C73.329 12.592 74.6694 14.2047 74.6694 16.8855V23.2526H72.1142V17.4929C72.1142 15.7546 71.2555 14.9168 69.936 14.9168C68.3652 14.9168 67.4018 16.0059 67.4018 17.6814V23.2526ZM76.1537 18.0584C76.1537 14.833 78.4785 12.6129 81.6829 12.6129C84.8874 12.6129 87.2122 14.833 87.2122 18.0584C87.2122 21.2838 84.8874 23.5039 81.6829 23.5039C78.4785 23.5039 76.1537 21.2838 76.1537 18.0584ZM78.7089 18.0584C78.7089 19.9434 79.9236 21.221 81.6829 21.221C83.4422 21.221 84.657 19.9434 84.657 18.0584C84.657 16.1734 83.4422 14.8958 81.6829 14.8958C79.9236 14.8958 78.7089 16.1734 78.7089 18.0584ZM92.235 23.2526H89.6798V15.0425H87.6901V12.9062H89.6798V9.68075H92.235V12.9062H94.2457V15.0425H92.235V23.2526ZM98.4327 23.5248C96.2335 23.5248 94.8931 22.2472 94.8931 20.2994C94.8931 18.3935 96.2754 17.1997 98.7259 17.0112L101.826 16.7808V16.5504C101.826 15.1472 100.988 14.5817 99.6893 14.5817C98.1814 14.5817 97.3436 15.21 97.3436 16.2991H95.1654C95.1654 14.0581 97.0085 12.592 99.815 12.592C102.601 12.592 104.318 14.1 104.318 16.9693V23.2526H102.077L101.888 21.7236C101.449 22.7918 100.045 23.5248 98.4327 23.5248ZM99.2705 21.598C100.841 21.598 101.847 20.6555 101.847 19.0637V18.5192L99.6893 18.6867C98.0976 18.8333 97.4902 19.357 97.4902 20.1947C97.4902 21.1372 98.1185 21.598 99.2705 21.598ZM109.785 23.2526H107.23V15.0425H105.24V12.9062H107.23V9.68075H109.785V12.9062H111.795V15.0425H109.785V23.2526ZM117.491 23.5248C114.413 23.5248 112.255 21.2838 112.255 18.0794C112.255 14.833 114.371 12.592 117.408 12.592C120.507 12.592 122.476 14.6655 122.476 17.8909V18.6658L114.685 18.6867C114.873 20.5089 115.837 21.4304 117.533 21.4304C118.937 21.4304 119.858 20.8859 120.151 19.9015H122.518C122.078 22.1635 120.193 23.5248 117.491 23.5248ZM117.429 14.6864C115.921 14.6864 114.999 15.5032 114.748 17.0531H119.942C119.942 15.6289 118.957 14.6864 117.429 14.6864Z" fill="black"/>
<defs>
<clipPath id="clip0_20_52">
<rect width="31.0524" height="31.0524" fill="white"/>
</clipPath>
</defs>
</svg>
