<svg width="1000" height="1000" viewBox="0 0 1000 1000" fill="none" xmlns="http://www.w3.org/2000/svg">
<g clip-path="url(#clip0_11_92)">
<rect x="45.2003" y="45.2003" width="909.599" height="909.599" rx="113.7" fill="#D9D9D9"/>
<path d="M798.729 377.575C800.689 380.52 803.647 382.735 807.104 383.649C810.561 384.563 814.211 384.112 817.282 382.379C820.354 380.646 822.627 377.754 823.631 374.323C824.637 370.892 824.27 367.214 822.763 364.014C822.763 364.014 822.763 364.014 822.763 364.014C800.089 321.586 762.787 294.644 723.869 273.084C604.762 207.019 447.536 225.958 336.055 301.17C298.571 325.235 263.142 355.178 234.89 392.383C175.772 465.641 154.484 585.42 215.56 671.71C272.98 761.143 402.193 780.056 486.966 735.457C672.685 644.806 797.751 481.594 885.542 304.608C886.257 302.99 886.815 301.698 887.266 300.624C887.323 300.489 887.378 300.357 887.432 300.227C887.458 300.162 887.485 300.098 887.511 300.034C887.525 300.002 887.538 299.97 887.551 299.939C887.575 299.881 887.633 299.745 887.673 299.649C887.848 299.232 888.011 298.84 888.215 298.321C888.319 298.056 888.434 297.762 888.592 297.326C888.754 296.864 888.946 296.375 889.322 295.052C889.51 294.343 889.766 293.507 890.081 291.508C890.226 290.471 890.422 289.16 890.404 286.765C890.226 284.336 890.583 280.785 887.046 273.58C885.224 270.076 881.763 265.482 876.315 262.219C870.927 258.888 864.256 257.728 859.474 258.103C849.767 259.005 846.123 262.42 844.186 263.606C840.325 266.541 839.573 267.83 838.675 268.835C837.181 270.72 836.88 271.317 836.504 271.894C836.174 272.429 835.989 272.757 835.83 273.039C835.246 274.088 835.009 274.579 834.659 275.274C833.614 277.415 832.192 280.461 831.317 282.374C830.797 283.502 830.231 284.733 829.621 286.064C829.085 287.237 828.665 288.169 828.151 289.303C827.195 291.418 825.897 294.278 825 296.288C821.009 305.196 816.792 314.745 812.954 323.559C805.019 341.756 797.052 360.44 789.51 378.531C774.187 415.281 759.404 452.25 745.425 489.615C731.472 527.03 718.201 564.741 706.873 603.625C701.23 623.195 696.089 642.754 692.37 663.482C690.491 674.258 689.018 684.609 688.755 696.524C688.702 699.589 688.758 702.572 688.953 705.517C689.179 709.072 689.602 712.551 690.322 716.013C692.007 723.171 694.558 733.702 706.408 742.026C734.773 758.101 756.611 747.289 773.775 741.048C791.043 733.639 806.161 724.212 820.554 714.275C849.197 694.259 874.854 671.77 899.296 648.045C929.699 617.742 958.831 587.769 982.458 548.888C984.211 545.726 984.703 541.995 983.772 538.484C982.842 534.974 980.573 531.978 977.456 530.149C974.339 528.32 970.617 527.8 967.099 528.7C963.581 529.599 960.564 531.848 958.657 534.921C958.657 534.921 958.657 534.921 958.657 534.921C937.311 566.644 906.617 596.278 876.44 623.52C852.027 645.166 826.417 665.577 799.547 682.661C786.152 691.116 772.244 698.809 758.805 703.872C745.537 709.389 731.043 709.614 729.968 707.099C731.692 708.181 732.52 709.566 732.569 709.595C732.629 709.662 732.592 709.54 732.519 709.223C732.445 708.909 732.336 708.368 732.266 707.871C732.108 706.807 731.966 705.284 731.923 703.391C731.894 701.822 731.93 700.009 732.048 697.98C732.532 689.992 734.026 681.269 736.02 672.032C739.961 654.082 745.466 635.813 751.519 617.45C763.679 580.842 777.946 544.442 792.867 508.276C807.82 472.131 823.573 436.187 839.807 400.433C847.805 382.837 856.213 364.643 864.553 346.969C868.594 338.415 873.003 329.143 877.151 320.573C878.089 318.643 879.415 315.892 880.4 313.881C880.928 312.801 881.364 311.919 881.907 310.812C882.522 309.554 883.09 308.401 883.606 307.361C883.864 306.841 884.11 306.349 884.342 305.886C884.458 305.655 884.571 305.431 884.68 305.214C884.722 305.132 884.82 304.934 884.899 304.775C884.981 304.611 885.061 304.452 885.138 304.297C885.766 303.043 886.205 302.191 886.545 301.556C886.627 301.4 886.683 301.298 886.69 301.289C886.693 301.286 886.664 301.353 886.474 301.696C886.373 301.874 886.237 302.117 885.949 302.585C885.614 303.097 885.346 303.645 883.876 305.5C882.99 306.49 882.248 307.769 878.395 310.698C876.462 311.881 872.822 315.294 863.118 316.196C858.338 316.571 851.668 315.411 846.281 312.081C840.834 308.818 837.375 304.225 835.553 300.724C832.018 293.521 832.375 289.975 832.198 287.552C832.18 285.164 832.375 283.861 832.519 282.833C832.831 280.853 833.081 280.043 833.26 279.365C833.618 278.107 833.779 277.708 833.899 277.362C834.015 277.043 834.074 276.892 834.111 276.797C834.18 276.618 834.157 276.672 834.096 276.81C834.082 276.842 834.057 276.899 834.045 276.925C834.038 276.939 834.032 276.953 834.025 276.968C834.01 276.999 833.995 277.031 833.979 277.065C833.947 277.133 833.912 277.209 833.873 277.292C833.562 277.961 833.054 279.058 832.378 280.506C747.657 441.244 620.564 596.36 457.825 671.55C391.592 703.323 312.907 687.821 275.609 630.637C236.766 574.666 247.822 494.668 293.523 436.854C315.396 408.002 343.988 382.676 375.631 361.055C470.752 294.045 594.485 269.004 705.183 313.089C740.842 327.288 777.449 348.505 798.729 377.575Z" fill="black"/>
</g>
<defs>
<clipPath id="clip0_11_92">
<rect width="909.599" height="909.599" fill="white" transform="translate(45.2003 45.2003)"/>
</clipPath>
</defs>
</svg>
