<svg width="240" height="88" viewBox="0 0 240 88" fill="none" xmlns="http://www.w3.org/2000/svg">
<g clip-path="url(#clip0_13_171)">
<rect x="8.66305" y="16.713" width="54.9236" height="54.9236" rx="6.42593" stroke="black" stroke-width="1.17205"/>
<path d="M54.2284 36.805C54.4058 37.0581 54.666 37.25 54.9692 37.3287C55.2722 37.4075 55.5909 37.368 55.8588 37.2168C56.1267 37.0656 56.3253 36.8133 56.4145 36.5131C56.5039 36.2129 56.4742 35.891 56.3493 35.6083C56.3493 35.6083 56.3493 35.6083 56.3493 35.6083C54.9159 32.8258 52.6007 31.1082 50.1567 29.6978C42.6961 25.3872 32.6245 26.5026 25.5673 31.2365C23.1905 32.7494 20.9292 34.6485 19.115 37.0371C15.3177 41.7289 13.8927 49.5653 17.9116 55.2237C21.6817 61.0978 30.2135 62.2929 35.6399 59.3948C47.3361 53.6202 55.0027 43.4443 60.4067 32.3538C60.4509 32.2523 60.4856 32.1707 60.5144 32.1005C60.5235 32.0784 60.5223 32.0804 60.541 32.0356C60.5529 32.0072 60.5642 31.9798 60.5794 31.9412C60.5965 31.8934 60.6084 31.8799 60.6661 31.6843C60.6811 31.6274 60.7017 31.5602 60.7271 31.3992C60.7388 31.3156 60.7545 31.2101 60.753 31.017C60.7387 30.8212 60.7675 30.535 60.4824 29.9541C60.3354 29.6716 60.0565 29.3013 59.6172 29.0382C59.1829 28.7696 58.645 28.676 58.2595 28.7063C57.4768 28.779 57.183 29.0543 57.0269 29.1499C56.7157 29.3865 56.6551 29.4903 56.5828 29.5712C56.3708 29.8483 56.393 29.8499 56.3559 29.9064C56.3112 29.9872 56.2956 30.0201 56.2721 30.0669C56.204 30.2091 56.1175 30.3977 56.0638 30.5178C55.9987 30.662 55.9266 30.8227 55.8706 30.9497C55.8125 31.0814 55.7332 31.2591 55.6789 31.384C55.4365 31.9376 55.1804 32.5301 54.948 33.0771C54.4671 34.2064 53.9846 35.3652 53.5287 36.4876C52.6021 38.7673 51.71 41.0608 50.8682 43.3801C50.0281 45.7026 49.2309 48.0439 48.5534 50.4634C48.2159 51.6815 47.9093 52.8993 47.6899 54.1983C47.579 54.8742 47.4927 55.5243 47.4824 56.2851C47.4807 56.4809 47.4859 56.6725 47.5001 56.8629C47.5164 57.0928 47.5454 57.3198 47.5946 57.5484C47.7099 58.0188 47.879 58.7376 48.7077 59.3178C50.6306 60.3857 52.0151 59.6447 53.0928 59.249C54.1759 58.771 55.1096 58.1728 55.997 57.5448C57.7617 56.2804 59.3303 54.8693 60.8226 53.383C62.6778 51.4857 64.4516 49.6087 65.8784 47.1898C65.983 46.9945 66.0123 46.7655 65.9545 46.5502C65.8969 46.3348 65.7578 46.1513 65.5669 46.0393C65.3761 45.9273 65.148 45.8954 64.9319 45.95C64.7157 46.0047 64.5301 46.1419 64.4106 46.3284C64.4106 46.3284 64.4106 46.3284 64.4106 46.3284C63.0639 48.2636 61.1481 50.0627 59.2674 51.7142C57.7467 53.0259 56.1538 54.2605 54.4949 55.2841C53.6686 55.7904 52.8122 56.248 52.0016 56.5391C51.2025 56.8685 50.3464 56.8082 50.4537 56.7296C50.7781 56.967 50.7192 57.0719 50.7166 56.9423C50.7045 56.8371 50.7003 56.6208 50.7186 56.3939C50.7544 55.9271 50.851 55.401 50.9791 54.8426C51.232 53.7564 51.582 52.6414 51.9658 51.5201C52.7368 49.2839 53.6379 47.0547 54.5784 44.8395C55.5209 42.6253 56.512 40.4222 57.5315 38.2306C58.0339 37.1521 58.5614 36.0367 59.0841 34.9537C59.3376 34.4297 59.6136 33.8614 59.8731 33.3372C60.0147 33.0498 60.1273 32.8257 60.2758 32.5305C60.3289 32.4272 60.4217 32.243 60.4549 32.1856C60.462 32.1718 60.4692 32.1614 60.4388 32.2168C60.409 32.2605 60.4362 32.2539 60.2272 32.5274C60.1556 32.6073 60.0957 32.7105 59.785 32.9467C59.6291 33.0422 59.3356 33.3174 58.5531 33.3901C58.1676 33.4203 57.6298 33.3268 57.1956 33.0582C56.7564 32.7952 56.4775 32.4249 56.3306 32.1425C56.0456 31.5618 56.0744 31.2759 56.0601 31.0805C56.0586 30.8878 56.0744 30.7827 56.086 30.6997C56.1111 30.54 56.1314 30.4743 56.1459 30.4194C56.2013 30.2317 56.208 30.2325 56.2168 30.2057C56.2236 30.188 56.2235 30.1881 56.2208 30.194C56.2151 30.2062 56.2136 30.2085 56.2086 30.2189C56.1904 30.2562 56.1593 30.3219 56.1178 30.4094C50.8828 40.1467 42.9986 49.6022 33.2051 54.0552C29.319 55.8669 25.0295 54.9396 22.9583 51.7718C20.8151 48.657 21.3848 44.173 24.0518 40.7815C25.3288 39.0962 27.0157 37.5869 28.902 36.2823C34.5861 32.2453 41.8415 30.6484 48.5531 33.1309C50.7082 33.9257 52.9511 35.1781 54.2284 36.805Z" fill="black"/>
</g>
<path d="M81.7663 58.3897H76.7342L86.7227 30.7322H91.6791L101.668 58.3897H96.5598L94.3276 51.9956H83.9985L81.7663 58.3897ZM88.5766 38.9803L85.4363 47.9094H92.9277L89.7495 38.9803C89.5225 38.2614 89.2576 37.429 89.182 36.8615C89.0685 37.3912 88.8414 38.2236 88.5766 38.9803ZM108.314 58.3897H103.698V39.6991H107.973L108.352 42.1206C109.525 40.2288 111.795 39.1316 114.33 39.1316C119.021 39.1316 121.443 42.0449 121.443 46.8878V58.3897H116.827V47.9851C116.827 44.8447 115.276 43.3313 112.892 43.3313C110.054 43.3313 108.314 45.2988 108.314 48.3256V58.3897ZM129.837 58.3897H125.221V39.6991H129.497L129.875 42.1206C131.048 40.2288 133.318 39.1316 135.853 39.1316C140.544 39.1316 142.966 42.0449 142.966 46.8878V58.3897H138.35V47.9851C138.35 44.8447 136.799 43.3313 134.415 43.3313C131.578 43.3313 129.837 45.2988 129.837 48.3256V58.3897ZM145.647 49.0066C145.647 43.18 149.847 39.1695 155.636 39.1695C161.424 39.1695 165.624 43.18 165.624 49.0066C165.624 54.8332 161.424 58.8438 155.636 58.8438C149.847 58.8438 145.647 54.8332 145.647 49.0066ZM150.263 49.0066C150.263 52.4118 152.458 54.7197 155.636 54.7197C158.814 54.7197 161.008 52.4118 161.008 49.0066C161.008 45.6014 158.814 43.2935 155.636 43.2935C152.458 43.2935 150.263 45.6014 150.263 49.0066ZM174.698 58.3897H170.082V43.5583H166.488V39.6991H170.082V33.8725H174.698V39.6991H178.33V43.5583H174.698V58.3897ZM185.894 58.8816C181.921 58.8816 179.5 56.5736 179.5 53.055C179.5 49.612 181.997 47.4554 186.423 47.1148L192.023 46.6987V46.2825C192.023 43.7475 190.51 42.726 188.164 42.726C185.44 42.726 183.926 43.861 183.926 45.8284H179.991C179.991 41.7801 183.321 39.1316 188.391 39.1316C193.423 39.1316 196.525 41.8558 196.525 47.0392V58.3897H192.477L192.137 55.6278C191.342 57.5574 188.807 58.8816 185.894 58.8816ZM187.407 55.4008C190.245 55.4008 192.061 53.6982 192.061 50.8227V49.839L188.164 50.1417C185.288 50.4065 184.191 51.3524 184.191 52.8658C184.191 54.5684 185.326 55.4008 187.407 55.4008ZM206.401 58.3897H201.785V43.5583H198.191V39.6991H201.785V33.8725H206.401V39.6991H210.033V43.5583H206.401V58.3897ZM220.323 58.8816C214.761 58.8816 210.864 54.8332 210.864 49.0444C210.864 43.18 214.685 39.1316 220.172 39.1316C225.771 39.1316 229.328 42.8773 229.328 48.7039V50.1038L215.253 50.1417C215.594 53.4333 217.334 55.0981 220.399 55.0981C222.934 55.0981 224.598 54.1144 225.128 52.3361H229.403C228.609 56.4223 225.204 58.8816 220.323 58.8816ZM220.209 42.9151C217.485 42.9151 215.821 44.3907 215.367 47.1905H224.75C224.75 44.6177 222.971 42.9151 220.209 42.9151Z" fill="black"/>
<defs>
<clipPath id="clip0_13_171">
<rect width="56.0956" height="56.0956" fill="white" transform="translate(8.07703 16.127)"/>
</clipPath>
</defs>
</svg>
